# xmcd
#
# Track frame offsets: 
#        150
#        18419
#        43135
#        68314
#        86469
#        107980
#        129314
#        160373
#        183679
#        211917
#
# Disc length: 3151 seconds
#
# Revision: 0
# Processed by: cddbd v1.5.2PL0 Copyright (c) Steve Scherf et al.
# Submitted via: ExactAudioCopy v1.0b3
#
DISCID=820c4d0a
DTITLE=Giao Linh, Thien Trang, Tuan Vu - Ai Cho Toi Tinh Yeu
DYEAR=1989
DGENRE=
TTITLE0=Thien Trang - Ai cho toi tinh yeu
TTITLE1=Giao Linh - Tam neo duong thanh
TTITLE2=Thien Trang, Tuan Vu - Sau tim thiep hong
TTITLE3=Giao Linh - Chuyen tinh dang do (Thoi anh hay ve di)
TTITLE4=Tuan Vu - Bo pho len rung
TTITLE5=Giao Linh - Gio nui mua rung
TTITLE6=Thien Trang - Tinh ca que huong
TTITLE7=Giao Linh, Tuan Vu - Thoang giac mo qua
TTITLE8=Thien Trang - Chuyen do khong em
TTITLE9=Giao Linh - Tieng ru ngan doi
EXTD=
EXTT0=
EXTT1=
EXTT2=
EXTT3=
EXTT4=
EXTT5=
EXTT6=
EXTT7=
EXTT8=
EXTT9=
PLAYORDER=
